<svg xmlns="http://www.w3.org/2000/svg" viewBox="0 0 128 72" role="img" aria-labelledby="wikidata-title">
  <title id="wikidata-title">Wikidata</title>
  <rect x="8" y="8" width="5" height="56" rx="2" fill="#990000"/>
  <rect x="17" y="8" width="5" height="56" rx="2" fill="#339966"/>
  <rect x="26" y="8" width="5" height="56" rx="2" fill="#006699"/>
  <rect x="38" y="16" width="5" height="40" rx="2" fill="#990000"/>
  <rect x="47" y="8" width="5" height="56" rx="2" fill="#339966"/>
  <rect x="56" y="16" width="5" height="40" rx="2" fill="#006699"/>
  <rect x="68" y="8" width="5" height="56" rx="2" fill="#990000"/>
  <rect x="77" y="16" width="5" height="40" rx="2" fill="#339966"/>
  <rect x="86" y="8" width="5" height="56" rx="2" fill="#006699"/>
  <rect x="98" y="8" width="5" height="56" rx="2" fill="#990000"/>
  <rect x="107" y="16" width="5" height="40" rx="2" fill="#339966"/>
  <rect x="116" y="8" width="5" height="56" rx="2" fill="#006699"/>
</svg>
