<?xml version="1.0" encoding="UTF-8" standalone="no"?><!DOCTYPE svg PUBLIC "-//W3C//DTD SVG 1.1//EN" "http://www.w3.org/Graphics/SVG/1.1/DTD/svg11.dtd"><svg width="100%" height="100%" viewBox="0 0 5390 1312" version="1.1" xmlns="http://www.w3.org/2000/svg" xmlns:xlink="http://www.w3.org/1999/xlink" xml:space="preserve" xmlns:serif="http://www.serif.com/" style="fill-rule:evenodd;clip-rule:evenodd;stroke-linejoin:round;stroke-miterlimit:2;"><g id="Library"><path d="M1587.164,925.129l0,-539.226l99.974,0l0,454.599l281.65,0l0,84.627l-381.623,0Z" style="fill:#fff;fill-rule:nonzero;"/><rect x="2110.214" y="385.902" width="99.974" height="539.226" style="fill:#fff;fill-rule:nonzero;"/><path d="M2417.573,925.129l0,-539.226l252.558,0c64.627,0 113.875,12.666 147.746,37.999c33.87,25.324 50.805,59.423 50.805,102.297c0,28.558 -6.68,53.048 -20.04,73.47c-13.36,20.422 -31.178,36.125 -53.453,47.11c-22.275,10.977 -46.645,16.466 -73.109,16.466l14.058,-27.515c30.492,0 57.774,5.46 81.847,16.381c24.073,10.921 43.11,26.993 57.112,48.217c14.01,21.216 21.015,47.263 21.015,78.14c0,46.284 -17.709,82.3 -53.128,108.05c-35.419,25.742 -87.901,38.612 -157.447,38.612l-267.964,0Zm99.576,-78.814l162.37,0c37.465,0 66.123,-6.163 85.975,-18.488c19.852,-12.333 29.778,-31.92 29.778,-58.761c0,-26.833 -9.926,-46.524 -29.778,-59.074c-19.852,-12.558 -48.51,-18.837 -85.975,-18.837l-170.001,0l0,-77.911l149.371,0c34.849,0 61.718,-6.151 80.607,-18.452c18.897,-12.301 28.345,-30.905 28.345,-55.812c0,-24.979 -9.448,-43.6 -28.345,-55.86c-18.889,-12.269 -45.758,-18.404 -80.607,-18.404l-141.74,0l0,381.599Z" style="fill:#fff;fill-rule:nonzero;"/><path d="M3065.415,925.129l0,-539.226l220.373,0c71.953,0 128.379,17.003 169.279,51.01c40.899,33.999 61.349,80.984 61.349,140.957c0,39.359 -9.232,73.277 -27.696,101.755c-18.456,28.478 -44.815,50.344 -79.079,65.598c-34.255,15.246 -75.207,22.869 -122.855,22.869l-166.065,0l44.667,-45.208l0,202.246l-99.974,0Zm352.279,0l-136.516,-195.758l107.4,0l137.382,195.758l-108.267,0Zm-252.305,-191.606l-44.667,-48.217l161.888,0c43.941,0 77.089,-9.448 99.444,-28.345c22.355,-18.905 33.533,-45.269 33.533,-79.091c0,-34.271 -11.178,-60.743 -33.533,-79.416c-22.355,-18.68 -55.503,-28.021 -99.444,-28.021l-161.888,0l44.667,-48.891l0,311.981Z" style="fill:#fff;fill-rule:nonzero;"/><path d="M3613.5,925.129l242.423,-539.226l98.902,0l243.097,539.226l-104.8,0l-208.3,-485.821l40.021,0l-208.3,485.821l-103.043,0Z" style="fill:#fff;fill-rule:nonzero;"/><path d="M4328.745,925.129l0,-539.226l220.373,0c71.953,0 128.379,17.003 169.279,51.01c40.899,33.999 61.349,80.984 61.349,140.957c0,39.359 -9.232,73.277 -27.696,101.755c-18.456,28.478 -44.815,50.344 -79.079,65.598c-34.255,15.246 -75.207,22.869 -122.855,22.869l-166.065,0l44.667,-45.208l0,202.246l-99.974,0Zm352.279,0l-136.516,-195.758l107.4,0l137.382,195.758l-108.267,0Zm-252.305,-191.606l-44.667,-48.217l161.888,0c43.941,0 77.089,-9.448 99.444,-28.345c22.355,-18.905 33.533,-45.269 33.533,-79.091c0,-34.271 -11.178,-60.743 -33.533,-79.416c-22.355,-18.68 -55.503,-28.021 -99.444,-28.021l-161.888,0l44.667,-48.891l0,311.981Z" style="fill:#fff;fill-rule:nonzero;"/><path d="M5077.728,925.129l0,-213.019l22.821,61l-234.239,-387.208l106.63,0l188.428,312.017l-60.049,0l189.295,-312.017l98.493,0l-234.034,387.208l22.628,-61l0,213.019l-99.974,0Z" style="fill:#fff;fill-rule:nonzero;"/></g><path d="M1145.214,37.616c-52.619,35.025 -102.126,72.208 -149.894,115.95c-129.244,-101.121 -305.45,-146.69 -466.077,-117.409c-111.125,15.564 -231.294,73.814 -313.714,148.42c-43.156,39.065 -85.496,87.884 -115.976,137.427c-57.256,93.066 -93.276,202.987 -98.78,311.913c-5.193,102.82 15.829,212.118 60.75,304.976c50.517,104.432 124.566,194.254 220.938,258.667c40.748,27.23 81.451,50.247 126.842,68.193c32.423,12.83 64.265,24.435 98.494,31.852l35.734,7.739c1.612,0.347 5.305,0.224 6.662,-0.112c1.347,-0.337 2.887,-4.535 2.948,-5.953c1.658,-38.57 2.214,-75.396 8.927,-113.41c18.104,-102.534 60.403,-185.587 151.832,-240.354c76.947,-46.084 179.491,-47.758 237.568,-115.655c2.515,-2.938 7.371,-6.29 10.304,-8.096c-1.831,60 -70.254,116.012 -116.129,146.328c-14.737,9.738 -27.378,19.752 -41.238,30.76c-12.386,9.83 -24.134,24.986 -16.63,41.218c95.561,19.104 186.495,-14.12 258.896,-75.682c63.898,-54.328 98.402,-116.721 138.187,-189.112c15.457,-28.128 41.004,-80.053 72.075,-92.781c-22.445,139.13 -85.69,264.885 -181.134,364.486c-39.667,41.396 -81.946,77.584 -131.014,106.416c-75.651,44.457 -129.821,62.204 -214.888,82.313c-33.234,7.856 -59.995,30.153 -81.298,55.134c-5.392,6.325 -8.499,13.151 -8.055,20.185l0.107,0c8.325,-2.28 18.895,-3.122 28.893,-3.525c40.509,-1.643 78.273,-6.438 118.21,-16.518c108.115,-27.302 207.634,-78.227 290.927,-152.547c158.352,-141.298 243.96,-334.644 257.295,-545.498c3.28,-51.854 1.796,-134.116 -4.826,-186.23c-17.104,-134.692 -63.27,-287.729 -129.418,-406.714l-56.521,37.616Zm-1027.337,858.885c-45.487,-103.458 -58.235,-209.614 -41.651,-321.779c11.437,-77.345 39.978,-149.976 80.849,-216.46c77.931,-126.75 205.267,-216.108 349.917,-248.714c71.998,-16.232 141.38,-17.288 213.633,-5.05c53.053,8.988 101.703,25.904 150.159,49.793c26.19,12.916 50.073,27.189 73.039,46.074l-64.015,68.683c-181.47,-121.939 -425.186,-98.096 -578.227,57.644c-62.704,63.811 -106.523,142.961 -126.76,230.467c-9.754,42.167 -14.493,81.191 -12.881,124.923c5.254,141.992 72.554,273.894 183.965,361.941c27.465,21.701 56.027,37.295 88.659,54.756l11.473,-68.565c-43.702,-26.786 -81.976,-55.874 -114.803,-94.969c-53.762,-64.035 -88.715,-141.834 -98.499,-225.621c-11.768,-100.841 16.849,-198.539 72.733,-281.454c12.401,-18.395 24.96,-34.918 40.718,-50.022c25.389,-24.317 43.804,-41.809 74.666,-59.909c46.839,-27.47 95.847,-47.645 150.032,-54.863c93.459,-12.447 187.296,6.601 265.038,58.893l-56.965,76.034c-127.724,-75.758 -293.814,-47.477 -386.274,70.448c-50.38,64.255 -75.11,148.772 -66.836,231.085c9.636,95.903 62.658,176.415 141.538,234.094c5.535,-19.849 5.611,-37.32 4.117,-57.185c-4.418,-58.715 -73.008,-80.288 -78.513,-206.681c-1.959,-45.003 9.932,-86.705 31.464,-125.49c44.931,-80.931 130.229,-128.663 223.04,-120.19c26.955,2.464 50.885,10.743 75.375,21.445c6.938,3.035 13.722,4.305 19.247,10.952c-98.474,152.383 -173.135,343.128 -213.94,519.058c-13.554,58.465 -24.618,115.267 -31.602,174.706l-8.238,70.137c-168.564,-51.68 -300.344,-164.718 -370.46,-324.182Zm1067.249,-348.091c-1.729,-123.204 -46.661,-262.702 -140.11,-349.917c18.436,-16.431 35.402,-31.265 54.369,-45.018l75.916,-55.032c73.911,161.351 108.6,343.439 89.95,520.645c-41.769,3.147 -58.271,19.395 -88.537,48.727c4.377,-41.034 8.983,-78.946 8.412,-119.404Zm-171.61,320.958c14.911,-29.98 28.485,-58.169 37.167,-91.184c43.559,-165.652 11.34,-347.045 -117.139,-468.546l39.937,-42.641c7.239,-7.723 13.539,-14.054 22.042,-21.15c74.223,66.76 112.492,174.176 120.123,271.66c6.749,86.226 -3.918,171.375 -30.878,253.137c-17.247,52.313 5.474,44.09 -32.311,92.903c-19.645,25.379 -53.476,58.317 -82.272,73.835c18.4,-21.461 31,-43.217 43.33,-68.014Zm-106.472,-102.06c24.858,-66.856 25.338,-138.625 0.531,-205.813c-14.778,-46.574 -39.846,-86.124 -74.212,-121.868c17.834,-26.312 35.423,-51.073 56.358,-76.416c32.811,30.225 57.343,65.617 75.059,105.932c40.81,92.893 44.921,189.75 18.426,287.586l-26.424,-17.171l-17.313,19.675c-12.763,14.508 -25.822,27.286 -42.901,36.264l10.478,-28.189Zm-260.248,41.621c23.445,-67.346 50.267,-131.03 82.41,-194.55c19.91,-39.488 39.555,-76.539 65.77,-115.685c76.982,88.327 83.109,221.01 10.789,313.638c-11.6,14.86 -26.547,28.551 -42.35,38.744c-12.942,8.34 -28.96,11.391 -42.881,17.181c-42.345,16.88 -75.778,41.743 -111.869,74.865c7.611,-47.043 23.777,-89.363 38.132,-134.192Z" style="fill:url(#_Radial1);fill-rule:nonzero;"/><defs><radialGradient id="_Radial1" cx="0" cy="0" r="1" gradientUnits="userSpaceOnUse" gradientTransform="matrix(662.205828,0,0,662.205828,668.830793,655.515402)"><stop offset="0" style="stop-color:#fffbcc;stop-opacity:1"/><stop offset="0.37" style="stop-color:#eed688;stop-opacity:1"/><stop offset="0.69" style="stop-color:#ebbb10;stop-opacity:1"/><stop offset="1" style="stop-color:#c3922e;stop-opacity:1"/></radialGradient></defs></svg>